<svg width="990" height="337" viewBox="0 0 990 337" fill="none" xmlns="http://www.w3.org/2000/svg">
<path fill-rule="evenodd" clip-rule="evenodd" d="M184.971 0.858398L175.171 17.8111C174.952 18.1909 174.732 18.5704 174.513 18.9505L0 320.858H369.941L184.971 0.858398ZM123.502 152.567L39.4782 297.929C83.1804 296.884 122.482 291.8 151.822 277.027C161.178 272.316 169.442 266.656 176.497 259.858C157.835 247.118 144.393 232.456 135.643 216.06C125.148 196.396 121.847 175.073 123.459 153.142C123.473 152.95 123.487 152.759 123.502 152.567ZM160.319 298.154H330.296C307.145 260.185 282.053 226.995 253.877 207.215C245.246 201.156 236.428 196.431 227.37 193.206C225.82 217.162 219.881 237.224 209.996 253.835C198.358 273.395 181.71 287.397 162.033 297.305C161.464 297.592 160.893 297.875 160.319 298.154ZM267.547 189.085L185.102 46.4544C163.975 85.1408 148.523 121.996 146.112 154.792C145.524 162.79 145.719 170.48 146.781 177.86C167.036 168.413 186.497 164.576 205.181 165.692C227.826 167.045 248.365 175.616 266.929 188.648C267.135 188.793 267.341 188.939 267.547 189.085ZM155.687 205.374C154.748 203.614 153.879 201.831 153.08 200.026C171.69 190.735 188.509 187.43 203.837 188.346C204.19 188.367 204.543 188.39 204.895 188.416C203.889 210.905 198.685 228.348 190.62 241.998C173.765 230.754 162.629 218.382 155.687 205.374Z" fill="#F3F3F3"/>
<path d="M796.057 79.8957C790.063 79.8957 785.037 77.8657 780.977 73.8057C776.917 69.7457 774.887 64.719 774.887 58.7257C774.887 52.7323 776.917 47.7057 780.977 43.6457C785.037 39.5857 790.063 37.5557 796.057 37.5557C801.857 37.5557 806.787 39.5857 810.847 43.6457C814.907 47.7057 816.937 52.7323 816.937 58.7257C816.937 64.719 814.907 69.7457 810.847 73.8057C806.787 77.8657 801.857 79.8957 796.057 79.8957ZM812.297 101.066V260.856H779.237V101.066H812.297Z" fill="#F3F3F3"/>
<path d="M621.554 124.556C627.161 117.209 634.797 111.023 644.464 105.996C654.131 100.969 665.054 98.4561 677.234 98.4561C691.154 98.4561 703.817 101.936 715.224 108.896C726.824 115.663 735.911 125.233 742.484 137.606C749.057 149.979 752.344 164.189 752.344 180.236C752.344 196.283 749.057 210.686 742.484 223.446C735.911 236.013 726.824 245.873 715.224 253.026C703.817 259.986 691.154 263.466 677.234 263.466C665.054 263.466 654.227 261.049 644.754 256.216C635.281 251.189 627.547 245.003 621.554 237.656V336.836H588.494V101.066H621.554V124.556ZM718.704 180.236C718.704 169.216 716.384 159.743 711.744 151.816C707.297 143.696 701.304 137.606 693.764 133.546C686.417 129.293 678.491 127.166 669.984 127.166C661.671 127.166 653.744 129.293 646.204 133.546C638.857 137.799 632.864 143.986 628.224 152.106C623.777 160.226 621.554 169.796 621.554 180.816C621.554 191.836 623.777 201.503 628.224 209.816C632.864 217.936 638.857 224.123 646.204 228.376C653.744 232.629 661.671 234.756 669.984 234.756C678.491 234.756 686.417 232.629 693.764 228.376C701.304 223.929 707.297 217.549 711.744 209.236C716.384 200.923 718.704 191.256 718.704 180.236Z" fill="#F3F3F3"/>
<path d="M386.73 180.236C386.73 164.189 390.017 149.979 396.59 137.606C403.357 125.233 412.444 115.663 423.85 108.896C435.45 101.936 448.21 98.4561 462.13 98.4561C474.697 98.4561 485.62 100.969 494.9 105.996C504.374 110.829 511.914 116.919 517.52 124.266V101.066H550.87V260.856H517.52V237.076C511.914 244.616 504.277 250.899 494.61 255.926C484.944 260.953 473.924 263.466 461.55 263.466C447.824 263.466 435.257 259.986 423.85 253.026C412.444 245.873 403.357 236.013 396.59 223.446C390.017 210.686 386.73 196.283 386.73 180.236ZM517.52 180.816C517.52 169.796 515.2 160.226 510.56 152.106C506.114 143.986 500.217 137.799 492.87 133.546C485.524 129.293 477.597 127.166 469.09 127.166C460.584 127.166 452.657 129.293 445.31 133.546C437.964 137.606 431.97 143.696 427.33 151.816C422.884 159.743 420.66 169.216 420.66 180.236C420.66 191.256 422.884 200.923 427.33 209.236C431.97 217.549 437.964 223.929 445.31 228.376C452.85 232.629 460.777 234.756 469.09 234.756C477.597 234.756 485.524 232.629 492.87 228.376C500.217 224.123 506.114 217.936 510.56 209.816C515.2 201.503 517.52 191.836 517.52 180.816Z" fill="#F3F3F3"/>
<path d="M851.9 101.646C853.06 83.6656 859.923 69.649 872.49 59.5956C885.25 49.5423 901.49 44.5156 921.21 44.5156C934.743 44.5156 946.44 46.9323 956.3 51.7656C966.16 56.599 973.603 63.1723 978.63 71.4856C983.657 79.799 986.17 89.1756 986.17 99.6156C986.17 111.602 982.98 121.849 976.6 130.356C970.22 138.862 962.583 144.566 953.69 147.466V148.626C965.097 152.106 973.99 158.486 980.37 167.766C986.75 176.852 989.94 188.549 989.94 202.856C989.94 214.262 987.33 224.412 982.11 233.306C976.89 242.199 969.157 249.256 958.91 254.476C948.663 259.502 936.387 262.016 922.08 262.016C901.2 262.016 883.993 256.699 870.46 246.066C857.12 235.239 849.967 219.772 849 199.666H880.9C881.673 209.912 885.637 218.322 892.79 224.896C899.943 231.276 909.61 234.466 921.79 234.466C933.583 234.466 942.67 231.276 949.05 224.896C955.43 218.322 958.62 209.912 958.62 199.666C958.62 186.132 954.27 176.562 945.57 170.956C937.063 165.156 923.917 162.256 906.13 162.256H898.59V134.996H906.42C922.08 134.802 933.97 132.192 942.09 127.166C950.403 122.139 954.56 114.212 954.56 103.386C954.56 94.1056 951.563 86.759 945.57 81.3456C939.577 75.739 931.07 72.9356 920.05 72.9356C909.223 72.9356 900.813 75.739 894.82 81.3456C888.827 86.759 885.25 93.5256 884.09 101.646H851.9Z" fill="#F3F3F3"/>
</svg>
